<svg width="13" height="7" viewBox="0 0 13 7" fill="none" xmlns="http://www.w3.org/2000/svg">
<path d="M12.25 2.50006C12.3881 2.50006 12.5 2.61199 12.5 2.75006V4.25006C12.5 4.38813 12.3881 4.50006 12.25 4.50006L3.83335 4.50005L6.75 4.50006C6.88807 4.50006 7 4.61199 7 4.75006V6.58145C7 6.77061 6.79803 6.89125 6.63148 6.80156L0.90879 3.72012C0.73349 3.62573 0.73349 3.37427 0.90879 3.27988L6.63148 0.198436C6.79803 0.108752 7 0.229385 7 0.418554V2.25005C7 2.38812 6.88807 2.50005 6.75 2.50005L3.83335 2.50005L12.25 2.50006Z" fill="#FA9614"/>
</svg>
