<svg width="227" height="216" viewBox="0 0 227 216" fill="none" xmlns="http://www.w3.org/2000/svg">
<rect width="227" height="216" rx="10" fill="url(#paint0_linear_321_1171)"/>
<rect x="0.5" y="0.5" width="226" height="215" rx="9.5" stroke="black" stroke-opacity="0.5"/>
<path d="M103.643 17.56C113.243 17.56 119.243 25.48 121.643 41.32V45.64H122.363C133.883 42.76 142.283 41.32 147.563 41.32H149.723C158.843 42.28 163.403 45.16 163.403 49.96C163.403 56.68 157.643 62.68 146.123 67.96C144.203 69.88 141.323 71.56 137.483 73V72.28C147.563 63.64 153.563 56.2 155.483 49.96V48.52H151.163H146.123C127.403 49.96 118.043 52.12 118.043 55C118.043 56.92 116.123 58.36 112.283 59.32H110.843L107.243 57.88V57.16L107.963 55.72H107.243C98.6027 57.64 91.1627 60.52 84.9227 64.36C75.8027 68.68 69.3227 72.52 65.4827 75.88L64.0427 85.24L65.4827 85.96C63.5627 90.76 61.8827 94.12 60.4427 96.04C53.7227 93.64 50.3627 89.56 50.3627 83.8C51.8027 76.6 54.6827 67.48 59.0027 56.44C61.8827 58.84 63.3227 63.16 63.3227 69.4H64.0427C78.4427 60.76 93.0827 54.28 107.963 49.96C108.443 49.96 108.683 49.48 108.683 48.52V41.32C108.683 30.76 107.003 23.08 103.643 18.28V17.56ZM117.323 74.44L124.523 73C128.843 73 131.723 75.64 133.163 80.92V81.64C133.163 84.04 130.283 89.56 124.523 98.2C121.163 107.8 119.483 113.08 119.483 114.04V116.2C122.843 120.52 125.003 122.92 125.963 123.4L139.643 121.24H145.403C158.363 124.12 164.843 127.48 164.843 131.32L163.403 134.2H159.083H157.643C152.363 131.8 149.243 130.6 148.283 130.6H142.523C140.603 130.6 136.523 131.56 130.283 133.48C131.723 140.2 132.443 146.44 132.443 152.2C132.443 164.2 128.123 174.04 119.483 181.72C119.003 181.72 116.123 183.64 110.843 187.48H110.123H109.403H104.363C101.003 187.48 99.0827 186.52 98.6027 184.6C106.283 181.72 111.803 177.64 115.163 172.36C121.403 161.8 124.523 152.44 124.523 144.28H123.803L124.523 143.56C124.523 137.32 123.803 134.2 122.363 134.2C100.763 139.96 88.7627 142.84 86.3627 142.84C83.4827 142.84 80.3627 141.4 77.0027 138.52V137.8C81.8027 136.84 95.9627 132.76 119.483 125.56L112.283 114.04V109.72C112.763 106.84 116.603 97.72 123.803 82.36L124.523 81.64H123.803C123.323 81.64 118.523 84.28 109.403 89.56L103.643 91.72C100.283 91.72 96.4427 89.08 92.1227 83.8L97.1627 84.52L117.323 74.44Z" fill="black"/>
<defs>
<linearGradient id="paint0_linear_321_1171" x1="113.5" y1="0" x2="113.5" y2="216" gradientUnits="userSpaceOnUse">
<stop stop-color="#FFEB84"/>
<stop offset="1" stop-color="#FCC18B"/>
</linearGradient>
</defs>
</svg>
